<svg width="40" height="40" viewBox="0 0 40 40" fill="none" xmlns="http://www.w3.org/2000/svg">
<path d="M24 10V14" stroke="#BFBFBF" stroke-width="1.5" stroke-linecap="round" stroke-linejoin="round"/>
<path d="M16 10V14" stroke="#BFBFBF" stroke-width="1.5" stroke-linecap="round" stroke-linejoin="round"/>
<path d="M11 17H29" stroke="#BFBFBF" stroke-width="1.5" stroke-linecap="round" stroke-linejoin="round"/>
<path fill-rule="evenodd" clip-rule="evenodd" d="M27 12H13C11.895 12 11 12.895 11 14V27C11 28.105 11.895 29 13 29H27C28.105 29 29 28.105 29 27V14C29 12.895 28.105 12 27 12Z" stroke="#BFBFBF" stroke-width="1.5" stroke-linecap="round" stroke-linejoin="round"/>
<path d="M15.0127 20.729C14.8747 20.729 14.7627 20.841 14.7637 20.979C14.7637 21.117 14.8757 21.229 15.0137 21.229C15.1517 21.229 15.2637 21.117 15.2637 20.979C15.2637 20.841 15.1517 20.729 15.0127 20.729" stroke="#BFBFBF" stroke-width="1.5" stroke-linecap="round" stroke-linejoin="round"/>
<path d="M20.0127 20.729C19.8747 20.729 19.7627 20.841 19.7637 20.979C19.7637 21.117 19.8757 21.229 20.0137 21.229C20.1517 21.229 20.2637 21.117 20.2637 20.979C20.2637 20.841 20.1517 20.729 20.0127 20.729" stroke="#BFBFBF" stroke-width="1.5" stroke-linecap="round" stroke-linejoin="round"/>
<path d="M25.0127 20.729C24.8747 20.729 24.7627 20.841 24.7637 20.979C24.7637 21.117 24.8757 21.229 25.0137 21.229C25.1517 21.229 25.2637 21.117 25.2637 20.979C25.2637 20.841 25.1517 20.729 25.0127 20.729" stroke="#BFBFBF" stroke-width="1.5" stroke-linecap="round" stroke-linejoin="round"/>
<path d="M15.0127 24.729C14.8747 24.729 14.7627 24.841 14.7637 24.979C14.7637 25.117 14.8757 25.229 15.0137 25.229C15.1517 25.229 15.2637 25.117 15.2637 24.979C15.2637 24.841 15.1517 24.729 15.0127 24.729" stroke="#BFBFBF" stroke-width="1.5" stroke-linecap="round" stroke-linejoin="round"/>
<path d="M20.0127 24.729C19.8747 24.729 19.7627 24.841 19.7637 24.979C19.7637 25.117 19.8757 25.229 20.0137 25.229C20.1517 25.229 20.2637 25.117 20.2637 24.979C20.2637 24.841 20.1517 24.729 20.0127 24.729" stroke="#BFBFBF" stroke-width="1.5" stroke-linecap="round" stroke-linejoin="round"/>
</svg>
