<svg width="40" height="40" viewBox="0 0 40 40" fill="none" xmlns="http://www.w3.org/2000/svg">
<path fill-rule="evenodd" clip-rule="evenodd" d="M27.0028 14.9381H20.5291C20.1967 14.9382 19.8859 14.7733 19.6997 14.4979L18.2991 12.434C18.1123 12.1598 17.8016 11.996 17.4698 11.9968H12.9969C11.8919 11.9968 10.9961 12.8926 10.9961 13.9977V26.0027C10.9961 27.1077 11.8919 28.0035 12.9969 28.0035H27.0028C28.1078 28.0035 29.0036 27.1077 29.0036 26.0027V16.9389C29.0036 15.8339 28.1078 14.9381 27.0028 14.9381Z" stroke="#BFBFBF" stroke-width="1.5" stroke-linecap="round" stroke-linejoin="round"/>
<path d="M10.9961 17.8792H17.4698C17.8006 17.8791 18.1099 17.7154 18.2961 17.442L19.6967 15.3762C19.8829 15.1021 20.1927 14.938 20.5241 14.938" stroke="#BFBFBF" stroke-width="1.5" stroke-linecap="round" stroke-linejoin="round"/>
</svg>
