<svg width="16" height="18" viewBox="0 0 16 18" fill="none" xmlns="http://www.w3.org/2000/svg">
<path fill-rule="evenodd" clip-rule="evenodd" d="M3.79953 4.78853C4.05953 4.52726 4.47953 4.52726 4.73953 4.78853L7.99953 8.05782L11.2595 4.78183C11.5195 4.52056 11.9395 4.52056 12.1995 4.78183C12.4595 5.04311 12.4595 5.46517 12.1995 5.72644L8.93953 9.00243L12.1995 12.2784C12.4595 12.5397 12.4595 12.9618 12.1995 13.223C11.9395 13.4843 11.5195 13.4843 11.2595 13.223L7.99953 9.94704L4.73953 13.223C4.47953 13.4843 4.05953 13.4843 3.79953 13.223C3.53953 12.9618 3.53953 12.5397 3.79953 12.2784L7.05953 9.00243L3.79953 5.72644C3.5462 5.47187 3.5462 5.04311 3.79953 4.78853Z" fill="#FE6854"/>
</svg>
