<svg width="16" height="16" viewBox="0 0 16 16" fill="none" xmlns="http://www.w3.org/2000/svg">
<g clip-path="url(#clip0_44_5282)">
<path d="M6.99967 1.33512C6.54964 1.34121 6.27947 1.36727 6.06102 1.47858C5.81014 1.60641 5.60616 1.81038 5.47833 2.06126C5.36703 2.27972 5.34097 2.54988 5.33487 2.99992M12.9997 1.33512C13.4497 1.34121 13.7199 1.36727 13.9383 1.47858C14.1892 1.60641 14.3932 1.81038 14.521 2.06126C14.6323 2.27972 14.6584 2.54988 14.6645 2.99991M14.6645 8.99991C14.6584 9.44995 14.6323 9.72012 14.521 9.93857C14.3932 10.1895 14.1892 10.3934 13.9383 10.5213C13.7199 10.6326 13.4497 10.6586 12.9997 10.6647M14.6663 5.33325V6.66658M9.33304 1.33325H10.6663M3.46634 14.6666H8.53301C9.27974 14.6666 9.65311 14.6666 9.93833 14.5213C10.1892 14.3934 10.3932 14.1895 10.521 13.9386C10.6663 13.6534 10.6663 13.28 10.6663 12.5333V7.46658C10.6663 6.71985 10.6663 6.34648 10.521 6.06126C10.3932 5.81038 10.1892 5.60641 9.93833 5.47858C9.65311 5.33325 9.27974 5.33325 8.53301 5.33325H3.46634C2.7196 5.33325 2.34624 5.33325 2.06102 5.47858C1.81014 5.60641 1.60616 5.81038 1.47833 6.06126C1.33301 6.34648 1.33301 6.71985 1.33301 7.46658V12.5333C1.33301 13.28 1.33301 13.6534 1.47833 13.9386C1.60616 14.1895 1.81014 14.3934 2.06102 14.5213C2.34624 14.6666 2.7196 14.6666 3.46634 14.6666Z" stroke="#6F767F" stroke-linecap="round" stroke-linejoin="round"/>
</g>
<defs>
<clipPath id="clip0_44_5282">
<rect width="16" height="16" fill="white"/>
</clipPath>
</defs>
</svg>
