<svg width="14" height="14" viewBox="0 0 14 14" fill="none" xmlns="http://www.w3.org/2000/svg">
<path d="M10.8352 5.66846C10.8352 5.66846 10.5185 9.59721 10.3347 11.2521C10.2472 12.0425 9.75896 12.5057 8.95921 12.5203C7.4373 12.5477 5.91363 12.5495 4.3923 12.5174C3.62288 12.5016 3.1428 12.0326 3.05705 11.2562C2.87213 9.58671 2.55713 5.66846 2.55713 5.66846" stroke="#77889C" stroke-linecap="round" stroke-linejoin="round"/>
<path d="M11.6422 3.78532H1.75" stroke="#77889C" stroke-linecap="round" stroke-linejoin="round"/>
<path d="M9.73584 3.78525C9.27793 3.78525 8.88359 3.4615 8.79376 3.01292L8.65201 2.30358C8.56451 1.97633 8.26818 1.75 7.93043 1.75H5.46118C5.12343 1.75 4.82709 1.97633 4.73959 2.30358L4.59784 3.01292C4.50801 3.4615 4.11368 3.78525 3.65576 3.78525" stroke="#77889C" stroke-linecap="round" stroke-linejoin="round"/>
</svg>
