<svg width="22" height="25" viewBox="0 0 22 25" fill="none" xmlns="http://www.w3.org/2000/svg">
<circle cx="15.9715" cy="9.39338" r="1.0301" fill="white"/>
<circle cx="20.6043" cy="6.81526" r="1.0301" fill="white"/>
<circle cx="20.6043" cy="17.6336" r="1.0301" fill="white"/>
<circle cx="1.0301" cy="17.6336" r="1.0301" fill="white"/>
<circle cx="10.8153" cy="23.2996" r="1.0301" fill="white"/>
<circle cx="10.8153" cy="1.15119" r="1.0301" fill="white"/>
<circle cx="1.0301" cy="6.81526" r="1.0301" fill="white"/>
<path d="M1.03125 17.632L15.9698 9.39119M1.03125 17.632L10.8186 23.2976M1.03125 17.632V6.81594M15.9698 9.39119L20.6059 6.81594M15.9698 9.39119L20.6059 17.632M15.9698 9.39119L10.8186 23.2976M15.9698 9.39119L10.8186 1.15039M15.9698 9.39119L1.03125 6.81594M20.6059 6.81594V17.632M20.6059 6.81594L10.8186 1.15039M20.6059 17.632L10.8186 23.2976M1.03125 6.81594L10.8186 1.15039" stroke="white" stroke-width="0.360535"/>
</svg>
