<svg width="40" height="40" viewBox="0 0 40 40" fill="none" xmlns="http://www.w3.org/2000/svg">
<path d="M12.8164 25.388C14.4624 27.574 17.0694 29 20.0004 29C24.9504 29 29.0004 24.95 29.0004 20C29.0004 15.05 24.9504 11 20.0004 11" stroke="#BFBFBF" stroke-width="1.5" stroke-linecap="round" stroke-linejoin="round"/>
<path d="M12.816 25.388C11.682 23.882 11 22.019 11 20C11 15.05 15.05 11 20 11" stroke="#BFBFBF" stroke-width="1.5" stroke-linecap="round" stroke-linejoin="round"/>
<path d="M19.75 15V16.25" stroke="#BFBFBF" stroke-width="1.5" stroke-linecap="round" stroke-linejoin="round"/>
<path d="M19.75 25V23.75" stroke="#BFBFBF" stroke-width="1.5" stroke-linecap="round" stroke-linejoin="round"/>
<path d="M22.237 18C22.172 17.024 21.367 16.25 20.375 16.25H19.005C18.035 16.25 17.25 17.036 17.25 18.005C17.25 18.81 17.798 19.512 18.578 19.708L20.921 20.296C21.702 20.492 22.249 21.194 22.249 21.999C22.249 22.969 21.463 23.754 20.494 23.754H19.124C18.13 23.754 17.325 22.978 17.261 22" stroke="#BFBFBF" stroke-width="1.5" stroke-linecap="round" stroke-linejoin="round"/>
</svg>
