<svg width="16" height="16" viewBox="0 0 16 16" fill="none" xmlns="http://www.w3.org/2000/svg">
<path fill-rule="evenodd" clip-rule="evenodd" d="M5.882 1.06388C4.99264 1.28659 4.26526 2.0333 4.05122 2.94323C3.99864 3.1669 3.98846 3.31926 3.98827 3.88636L3.98805 4.56273H3.67268C3.3136 4.56273 3.18566 4.60608 3.07402 4.76558C2.97862 4.90191 2.97459 5.23815 3.06684 5.36426C3.18859 5.53072 3.3259 5.58127 3.6562 5.58127H3.95601L3.93899 5.81203C3.92959 5.93893 3.83191 7.79021 3.7219 9.92595C3.53881 13.4797 3.52554 13.8271 3.56545 14.0215C3.68802 14.6184 4.14578 15.1008 4.70628 15.2237C4.83388 15.2516 5.70466 15.2587 8.09447 15.2514L11.3109 15.2414L11.5523 15.1239C12.0304 14.8912 12.3317 14.4897 12.4197 13.9683C12.4381 13.8589 12.3841 12.5888 12.2471 9.91004C12.1375 7.76554 12.0401 5.91554 12.0307 5.79891L12.0136 5.5869L12.3492 5.57611C12.7072 5.56465 12.7721 5.5396 12.9032 5.36247C12.9951 5.23828 13.0036 4.97712 12.9206 4.82828C12.7993 4.61067 12.7302 4.58002 12.3336 4.56795L11.9823 4.55726L11.9821 3.88363C11.9819 3.31926 11.9717 3.16674 11.9191 2.94323C11.7033 2.02563 10.974 1.28223 10.0737 1.06226C9.82631 1.00181 9.71105 0.998439 7.96956 1.00038C6.25945 1.00232 6.10952 1.00687 5.882 1.06388ZM9.68707 2.0495C10.1772 2.12096 10.6053 2.4381 10.8117 2.88279C10.9463 3.17269 10.9816 3.41663 10.9824 4.06142L10.983 4.56273H7.98517H4.98733L4.98796 4.06142C4.98874 3.41663 5.02409 3.17269 5.15864 2.88279C5.35888 2.45138 5.79572 2.11975 6.25317 2.05183C6.51685 2.01268 9.42083 2.0107 9.68707 2.0495ZM6.55414 3.10859C6.39906 3.27687 6.51342 3.5442 6.74044 3.5442C6.88459 3.5442 6.98589 3.43725 6.98589 3.28511C6.98589 3.05912 6.70544 2.94444 6.55414 3.10859ZM8.05306 3.10859C7.89798 3.27687 8.01234 3.5442 8.23936 3.5442C8.38351 3.5442 8.48481 3.43725 8.48481 3.28511C8.48481 3.05912 8.20436 2.94444 8.05306 3.10859ZM9.55198 3.10859C9.3969 3.27687 9.51126 3.5442 9.73828 3.5442C9.88243 3.5442 9.98373 3.43725 9.98373 3.28511C9.98373 3.05912 9.70328 2.94444 9.55198 3.10859ZM10.9958 5.65288C11.0035 5.69229 11.1021 7.54306 11.215 9.76572L11.4203 13.8069L11.35 13.9507C11.3073 14.0379 11.2367 14.1198 11.1704 14.1587C11.0628 14.2219 11.0126 14.2229 7.98517 14.2229C4.94005 14.2229 4.90817 14.2222 4.79997 14.1576C4.73985 14.1217 4.65844 14.033 4.61903 13.9605L4.5474 13.8286L4.75503 9.74471C4.86923 7.49859 4.96778 5.64295 4.97403 5.62105C4.98299 5.58957 5.61188 5.58127 7.98361 5.58127H10.9818L10.9958 5.65288Z" fill="#6F767F"/>
<path d="M7.95876 12.5C7.57388 12.5 7.20504 12.4544 6.85223 12.3633C6.49943 12.268 6.21535 12.1457 6 11.9965L6.37801 11.2383C6.58419 11.3709 6.82703 11.4807 7.10653 11.5677C7.39061 11.6506 7.67698 11.692 7.96564 11.692C8.18557 11.692 8.36197 11.6733 8.49485 11.636C8.6323 11.5946 8.7331 11.5387 8.79725 11.4682C8.8614 11.3978 8.89347 11.317 8.89347 11.2258C8.89347 11.1098 8.84307 11.0186 8.74227 10.9523C8.64147 10.8819 8.50859 10.826 8.34364 10.7845C8.17869 10.739 7.99542 10.6975 7.79381 10.6602C7.59679 10.6188 7.39748 10.5691 7.19588 10.511C6.99885 10.453 6.81787 10.3785 6.65292 10.2873C6.48797 10.1961 6.35281 10.076 6.24742 9.9268C6.14662 9.77762 6.09622 9.58702 6.09622 9.35497C6.09622 9.10635 6.16953 8.88052 6.31615 8.67749C6.46735 8.4703 6.69187 8.30663 6.98969 8.18646C7.2921 8.06215 7.6701 8 8.12371 8C8.42612 8 8.72394 8.03315 9.01718 8.09945C9.31042 8.1616 9.5693 8.25691 9.79381 8.38536L9.45017 9.14986C9.22566 9.03384 9.00115 8.9489 8.77663 8.89503C8.55212 8.83702 8.33219 8.80801 8.11684 8.80801C7.90149 8.80801 7.72509 8.8308 7.58763 8.87638C7.45017 8.92196 7.35166 8.98204 7.2921 9.05663C7.23253 9.12707 7.20275 9.20994 7.20275 9.30525C7.20275 9.41713 7.25315 9.50829 7.35395 9.57873C7.45475 9.64503 7.58763 9.69889 7.75258 9.74033C7.91753 9.78177 8.09851 9.8232 8.29553 9.86464C8.49714 9.90608 8.69645 9.95373 8.89347 10.0076C9.09507 10.0615 9.27835 10.134 9.4433 10.2251C9.60825 10.3163 9.74112 10.4365 9.84192 10.5856C9.94731 10.7348 10 10.9233 10 11.1512C10 11.3957 9.9244 11.6195 9.7732 11.8225C9.62199 12.0256 9.39519 12.1892 9.09278 12.3135C8.79496 12.4378 8.41695 12.5 7.95876 12.5Z" fill="#6F767F"/>
</svg>
