<svg width="40" height="40" viewBox="0 0 40 40" fill="none" xmlns="http://www.w3.org/2000/svg">
<path d="M20 23C21.6569 23 23 21.6569 23 20C23 18.3431 21.6569 17 20 17C18.3431 17 17 18.3431 17 20C17 21.6569 18.3431 23 20 23Z" stroke="#BFBFBF" stroke-width="1.5" stroke-linecap="round" stroke-linejoin="round"/>
<path d="M26.7273 22.7273C26.6063 23.0015 26.5702 23.3056 26.6236 23.6005C26.6771 23.8954 26.8177 24.1676 27.0273 24.3818L27.0818 24.4364C27.2509 24.6052 27.385 24.8057 27.4765 25.0265C27.568 25.2472 27.6151 25.4838 27.6151 25.7227C27.6151 25.9617 27.568 26.1983 27.4765 26.419C27.385 26.6397 27.2509 26.8402 27.0818 27.0091C26.913 27.1781 26.7124 27.3122 26.4917 27.4037C26.271 27.4952 26.0344 27.5423 25.7955 27.5423C25.5565 27.5423 25.3199 27.4952 25.0992 27.4037C24.8785 27.3122 24.678 27.1781 24.5091 27.0091L24.4545 26.9545C24.2403 26.745 23.9682 26.6044 23.6733 26.5509C23.3784 26.4974 23.0742 26.5335 22.8 26.6545C22.5311 26.7698 22.3018 26.9611 22.1403 27.205C21.9788 27.4489 21.8921 27.7347 21.8909 28.0273V28.1818C21.8909 28.664 21.6994 29.1265 21.3584 29.4675C21.0174 29.8084 20.5549 30 20.0727 30C19.5905 30 19.1281 29.8084 18.7871 29.4675C18.4461 29.1265 18.2545 28.664 18.2545 28.1818V28.1C18.2475 27.7991 18.1501 27.5073 17.975 27.2625C17.7999 27.0176 17.5552 26.8312 17.2727 26.7273C16.9985 26.6063 16.6944 26.5702 16.3995 26.6236C16.1046 26.6771 15.8324 26.8177 15.6182 27.0273L15.5636 27.0818C15.3948 27.2509 15.1943 27.385 14.9735 27.4765C14.7528 27.568 14.5162 27.6151 14.2773 27.6151C14.0383 27.6151 13.8017 27.568 13.581 27.4765C13.3603 27.385 13.1598 27.2509 12.9909 27.0818C12.8219 26.913 12.6878 26.7124 12.5963 26.4917C12.5048 26.271 12.4577 26.0344 12.4577 25.7955C12.4577 25.5565 12.5048 25.3199 12.5963 25.0992C12.6878 24.8785 12.8219 24.678 12.9909 24.5091L13.0455 24.4545C13.255 24.2403 13.3956 23.9682 13.4491 23.6733C13.5026 23.3784 13.4665 23.0742 13.3455 22.8C13.2302 22.5311 13.0389 22.3018 12.795 22.1403C12.5511 21.9788 12.2653 21.8921 11.9727 21.8909H11.8182C11.336 21.8909 10.8735 21.6994 10.5325 21.3584C10.1916 21.0174 10 20.5549 10 20.0727C10 19.5905 10.1916 19.1281 10.5325 18.7871C10.8735 18.4461 11.336 18.2545 11.8182 18.2545H11.9C12.2009 18.2475 12.4927 18.1501 12.7375 17.975C12.9824 17.7999 13.1688 17.5552 13.2727 17.2727C13.3937 16.9985 13.4298 16.6944 13.3764 16.3995C13.3229 16.1046 13.1823 15.8324 12.9727 15.6182L12.9182 15.5636C12.7491 15.3948 12.615 15.1943 12.5235 14.9735C12.432 14.7528 12.3849 14.5162 12.3849 14.2773C12.3849 14.0383 12.432 13.8017 12.5235 13.581C12.615 13.3603 12.7491 13.1598 12.9182 12.9909C13.087 12.8219 13.2876 12.6878 13.5083 12.5963C13.729 12.5048 13.9656 12.4577 14.2045 12.4577C14.4435 12.4577 14.6801 12.5048 14.9008 12.5963C15.1215 12.6878 15.322 12.8219 15.4909 12.9909L15.5455 13.0455C15.7597 13.255 16.0318 13.3956 16.3267 13.4491C16.6216 13.5026 16.9258 13.4665 17.2 13.3455H17.2727C17.5416 13.2302 17.7709 13.0389 17.9324 12.795C18.094 12.5511 18.1807 12.2653 18.1818 11.9727V11.8182C18.1818 11.336 18.3734 10.8735 18.7144 10.5325C19.0553 10.1916 19.5178 10 20 10C20.4822 10 20.9447 10.1916 21.2856 10.5325C21.6266 10.8735 21.8182 11.336 21.8182 11.8182V11.9C21.8193 12.1925 21.906 12.4783 22.0676 12.7222C22.2291 12.9661 22.4584 13.1575 22.7273 13.2727C23.0015 13.3937 23.3056 13.4298 23.6005 13.3764C23.8954 13.3229 24.1676 13.1823 24.3818 12.9727L24.4364 12.9182C24.6052 12.7491 24.8057 12.615 25.0265 12.5235C25.2472 12.432 25.4838 12.3849 25.7227 12.3849C25.9617 12.3849 26.1983 12.432 26.419 12.5235C26.6397 12.615 26.8402 12.7491 27.0091 12.9182C27.1781 13.087 27.3122 13.2876 27.4037 13.5083C27.4952 13.729 27.5423 13.9656 27.5423 14.2045C27.5423 14.4435 27.4952 14.6801 27.4037 14.9008C27.3122 15.1215 27.1781 15.322 27.0091 15.4909L26.9545 15.5455C26.745 15.7597 26.6044 16.0318 26.5509 16.3267C26.4974 16.6216 26.5335 16.9258 26.6545 17.2V17.2727C26.7698 17.5416 26.9611 17.7709 27.205 17.9324C27.4489 18.094 27.7347 18.1807 28.0273 18.1818H28.1818C28.664 18.1818 29.1265 18.3734 29.4675 18.7144C29.8084 19.0553 30 19.5178 30 20C30 20.4822 29.8084 20.9447 29.4675 21.2856C29.1265 21.6266 28.664 21.8182 28.1818 21.8182H28.1C27.8075 21.8193 27.5217 21.906 27.2778 22.0676C27.0339 22.2291 26.8425 22.4584 26.7273 22.7273Z" stroke="#BFBFBF" stroke-width="1.5" stroke-linecap="round" stroke-linejoin="round"/>
</svg>
