<svg width="40" height="40" viewBox="0 0 40 40" fill="none" xmlns="http://www.w3.org/2000/svg">
<path d="M17.8621 18.6754L17.8622 18.6754L24.9315 11.6304C25.4848 11.0789 26.2216 10.7748 27.005 10.7748C27.7889 10.7748 28.5263 11.0788 29.0801 11.6312C30.2242 12.7715 30.2252 14.6263 29.0824 15.7668L29.0823 15.7668L22.0122 22.8122L22.0121 22.8122C21.6694 23.1536 21.2129 23.3421 20.7281 23.3421C20.4357 23.3421 20.1545 23.2724 19.9021 23.1433L18.5247 24.5161C18.2647 24.7753 18.1465 25.1103 18.0011 25.5295C18.0011 25.5295 18.0011 25.5295 18.0011 25.5296L17.9998 25.5333C17.8359 26.0066 17.6428 26.564 17.1591 27.0461C15.4045 28.7948 13.3239 29.3599 11.9271 29.36C11.5565 29.36 11.2319 29.3202 10.9723 29.2506C10.3696 29.0897 10.1508 28.7963 10.0856 28.5527L17.8621 18.6754ZM17.8621 18.6754C17.3233 19.2129 17.1971 20.0059 17.4783 20.6656M17.8621 18.6754L17.4783 20.6656M16.5464 26.4345L16.5464 26.4344C16.8862 26.0962 17.0264 25.6963 17.1823 25.247L16.5464 26.4345ZM16.5464 26.4345C14.6621 28.3129 12.4764 28.5963 11.4948 28.4729C11.2425 28.4409 11.0865 28.3879 10.9977 28.3457C11.8831 27.4625 15.0361 24.3204 16.8969 22.466C17.3633 22.0012 17.7486 21.6173 17.9966 21.3701L19.2257 22.595L17.9119 23.905C17.5076 24.3076 17.3393 24.7936 17.1845 25.2406L17.1823 25.2469L16.5464 26.4345ZM21.3995 22.2007L21.3996 22.2007L28.4693 15.1557C28.4693 15.1557 28.4693 15.1557 28.4693 15.1557C29.2744 14.3529 29.2736 13.0459 28.4674 12.2432L28.4674 12.2432C28.077 11.854 27.5576 11.6395 27.0046 11.6395C26.452 11.6395 25.9337 11.8535 25.5436 12.2422L24.1917 13.5897H25.4428C25.6816 13.5897 25.8759 13.7829 25.8759 14.0217C25.8759 14.2607 25.6816 14.4536 25.4428 14.4536L23.3247 14.4535L22.008 15.7655L23.2592 15.7656C23.498 15.7656 23.6921 15.9586 23.6921 16.1976C23.6921 16.4366 23.4976 16.6295 23.2589 16.6295H23.2588L21.1413 16.6291L19.824 17.9417H21.0757C21.3147 17.9417 21.5088 18.1347 21.5088 18.3737C21.5088 18.6126 21.3147 18.8056 21.0757 18.8056H18.9569L18.4744 19.2865C18.4744 19.2865 18.4744 19.2865 18.4744 19.2866C18.1049 19.655 18.1048 20.2556 18.4745 20.6249C18.4745 20.6249 18.4746 20.625 18.4746 20.625M21.3995 22.2007L18.4039 20.6958L18.4746 20.625M21.3995 22.2007C21.2202 22.3796 20.9821 22.4778 20.7276 22.4778C20.4734 22.4778 20.2355 22.3796 20.0561 22.2008L20.0561 22.2008L18.4746 20.625M21.3995 22.2007L18.4746 20.625M17.4783 20.6656C16.382 21.758 11.3574 26.7649 10.3313 27.7887C10.0271 28.0916 10.0426 28.3934 10.0855 28.5525L17.4783 20.6656Z" fill="#BFBFBF" stroke="#BFBFBF" stroke-width="0.2"/>
</svg>
